HIERARCHY
ROOT Hips
{
	OFFSET 0.000000 0.000000 0.000000
	CHANNELS 6 Xposition Yposition Zposition Zrotation Yrotation Xrotation 
	JOINT LHipJoint
	{
		OFFSET 0.000000 0.000000 0.000000
		CHANNELS 3 Zrotation Yrotation Xrotation
		JOINT LeftUpLeg
		{
			OFFSET 1.363060 -1.794630 0.839290
			CHANNELS 3 Zrotation Yrotation Xrotation
			JOINT LeftLeg
			{
				OFFSET 2.448110 -6.726130 0.000000
				CHANNELS 3 Zrotation Yrotation Xrotation
				JOINT LeftFoot
				{
					OFFSET 2.562200 -7.039590 0.000000
					CHANNELS 3 Zrotation Yrotation Xrotation
					JOINT LeftToeBase
					{
						OFFSET 0.157640 -0.433110 2.322550
						CHANNELS 3 Zrotation Yrotation Xrotation
						End Site
						{
							OFFSET 0.000000 0.000000 0.000000
						}
					}
				}
			}
		}
	}
	JOINT RHipJoint
	{
		OFFSET 0.000000 0.000000 0.000000
		CHANNELS 3 Zrotation Yrotation Xrotation
		JOINT RightUpLeg
		{
			OFFSET -1.305520 -1.794630 0.839290
			CHANNELS 3 Zrotation Yrotation Xrotation
			JOINT RightLeg
			{
				OFFSET -2.542530 -6.985550 0.000000
				CHANNELS 3 Zrotation Yrotation Xrotation
				JOINT RightFoot
				{
					OFFSET -2.568260 -7.056230 0.000000
					CHANNELS 3 Zrotation Yrotation Xrotation
					JOINT RightToeBase
					{
						OFFSET -0.164730 -0.452590 2.363150
						CHANNELS 3 Zrotation Yrotation Xrotation
						End Site
						{
							OFFSET 0.000000 0.000000 0.000000
						}
					}
				}
			}
		}
	}
}
MOTION
Frames: 11
Frame Time: 0.008333
25.087680 16.180976 4.469126 -10.068268 -87.315294 8.311554 -11.084559 6.476863 0.921929 4.723211 9.159676 22.557132 0.025338 2.233669 19.973570 1.019708 2.142843 19.143214 0.512800 -0.000000 -93.812900 9.525770 -0.305861 -0.013843 11.215109 -13.541434 -37.429723 1.541891 -2.583315 41.635866 -1.002323 -3.136949 -8.998882 -0.005200 0.000000 -28.298400
24.904215 16.191254 4.419614 -11.979440 -87.136190 10.062034 -11.211012 6.558373 1.028192 5.430123 8.737157 22.158493 0.137554 2.313611 21.274368 1.078823 0.859771 21.742844 -0.092700 0.000000 -93.099200 9.489669 -0.365869 -0.090402 11.361158 -13.545512 -36.616909 1.523281 -2.571195 42.178037 -1.050402 -3.268399 -9.855550 0.077200 -0.000000 -26.384300
24.723059 16.202795 4.369784 -13.737552 -86.922541 11.669983 -11.346292 6.614524 1.131327 6.126287 8.300254 21.613853 0.240455 2.376895 22.760930 1.161200 -0.372032 24.169863 -0.765001 -0.000000 -91.251400 9.442604 -0.430404 -0.164435 11.529763 -13.520139 -35.743673 1.512035 -2.550097 42.607415 -1.115151 -3.476076 -10.754740 0.169800 -0.000000 -24.392800
24.544919 16.215372 4.319853 -15.267010 -86.676131 13.055575 -11.483951 6.641949 1.224101 6.802027 7.873648 20.920288 0.331746 2.426591 24.440614 1.261726 -1.419539 26.315520 -1.411300 0.000000 -88.361600 9.388668 -0.498263 -0.236435 11.713994 -13.475351 -34.826025 1.506891 -2.523264 42.939907 -1.194314 -3.748013 -11.679127 0.274800 -0.000000 -22.387299
24.370488 16.228766 4.269954 -16.503731 -86.403580 14.150829 -11.616151 6.639172 1.298512 7.443226 7.482484 20.085011 0.411498 2.468518 26.308017 1.374407 -2.128384 28.081838 -1.911999 0.000000 -84.563100 9.333725 -0.568031 -0.307585 11.902130 -13.424114 -33.877973 1.506087 -2.494078 43.191870 -1.283863 -4.066329 -12.601502 0.392000 0.000000 -20.524800
24.200383 16.242906 4.220391 -17.491190 -86.111448 14.999884 -11.741889 6.609265 1.350319 8.051859 7.152713 19.093114 0.481768 2.510419 28.376968 1.492479 -2.380661 29.370805 -2.161201 0.000000 -79.875300 9.278736 -0.638032 -0.377762 12.093933 -13.374068 -32.915309 1.509266 -2.463365 43.375821 -1.380815 -4.413855 -13.516899 0.521600 -0.000000 -18.755500
24.034786 16.257594 4.171339 -18.256368 -85.809836 15.627611 -11.859474 6.554164 1.375432 8.622666 6.907138 17.955791 0.547635 2.557934 30.613397 1.614614 -2.061488 30.144635 -2.064900 -0.000000 -74.849500 9.225920 -0.707521 -0.448139 12.284829 -13.337667 -31.948453 1.515485 -2.432463 43.500891 -1.480219 -4.769130 -14.401633 0.660200 -0.000000 -17.206000
23.874005 16.272774 4.122736 -18.773441 -85.511945 16.000662 -11.963225 6.474400 1.370120 9.131976 6.749958 16.709079 0.613494 2.615668 32.967181 1.740617 -1.113995 30.386718 -1.579800 0.000000 -69.721100 9.180864 -0.775190 -0.521247 12.458107 -13.328350 -30.978405 1.524590 -2.403230 43.576151 -1.576561 -5.106630 -15.244880 0.803400 0.000000 -15.907200
23.717853 16.288472 4.074723 -19.094268 -85.226893 16.171800 -12.054466 6.372918 1.336135 9.573399 6.683542 15.369198 0.682757 2.685314 35.394745 1.871860 0.443949 30.092553 -0.728500 0.000001 -64.788800 9.143502 -0.840941 -0.597603 12.611956 -13.354049 -30.008228 1.537026 -2.375294 43.601766 -1.666158 -5.409112 -16.040249 0.946900 -0.000000 -14.843800
23.566214 16.304695 4.027218 -19.247432 -84.964300 16.167332 -12.133298 6.251744 1.274367 9.942129 6.711724 13.956957 0.756542 2.766916 37.850571 2.008832 2.524129 29.261579 0.403901 0.000000 -60.138300 9.114737 -0.904859 -0.677290 12.741086 -13.419087 -29.037177 1.553113 -2.348487 43.576676 -1.746032 -5.663394 -16.783102 1.086200 -0.000000 -14.006600
23.418458 16.321537 3.980149 -19.253632 -84.731892 16.008902 -12.199555 6.113383 1.188696 10.230051 6.826484 12.499379 0.834080 2.857846 40.274076 2.153073 4.999331 27.927498 1.695400 0.000000 -55.979100 9.094945 -0.967495 -0.760016 12.841033 -13.525372 -28.060411 1.573394 -2.322196 43.494897 -1.814151 -5.860525 -17.470896 1.216900 0.000000 -13.369200
